<svg width="12" height="12" viewBox="0 0 12 12" fill="none" xmlns="http://www.w3.org/2000/svg">
<path d="M7.88531 6.00016L10.9426 2.94283C11.4633 2.42216 11.4633 1.57816 10.9426 1.05749C10.4226 0.536825 9.57731 0.536825 9.05731 1.05749L5.99998 4.11483L2.94264 1.05749C2.42264 0.536825 1.57731 0.536825 1.05731 1.05749C0.536642 1.57816 0.536642 2.42216 1.05731 2.94283L4.11464 6.00016L1.05731 9.05749C0.536642 9.57816 0.536642 10.4222 1.05731 10.9428C1.31731 11.2035 1.65864 11.3335 1.99998 11.3335C2.34131 11.3335 2.68264 11.2035 2.94264 10.9428L5.99998 7.88549L9.05731 10.9428C9.31731 11.2035 9.65864 11.3335 9.99998 11.3335C10.3413 11.3335 10.6826 11.2035 10.9426 10.9428C11.4633 10.4222 11.4633 9.57816 10.9426 9.05749L7.88531 6.00016Z" fill="white"/>
</svg>
