<svg width="759" height="16" viewBox="0 0 759 16" fill="none" xmlns="http://www.w3.org/2000/svg">
<path d="M0.543457 13.91H13.5435V0.91H0.543457V13.91ZM18.1756 3.718V13H24.3246V11.96H19.4106V3.718H18.1756ZM26.9983 9.165L28.5713 4.836H28.5973L30.1443 9.165H26.9983ZM27.9213 3.718L24.3073 13H25.5683L26.6083 10.205H30.5343L31.5483 13H32.9133L29.2863 3.718H27.9213ZM39.1979 6.435H40.3679C40.3506 5.92367 40.2509 5.486 40.0689 5.122C39.8956 4.74933 39.6529 4.44167 39.3409 4.199C39.0376 3.95633 38.6823 3.77867 38.2749 3.666C37.8676 3.55333 37.4256 3.497 36.9489 3.497C36.5243 3.497 36.1083 3.55333 35.7009 3.666C35.3023 3.77 34.9426 3.93467 34.6219 4.16C34.3099 4.37667 34.0586 4.65833 33.8679 5.005C33.6773 5.343 33.5819 5.746 33.5819 6.214C33.5819 6.63867 33.6643 6.994 33.8289 7.28C34.0023 7.55733 34.2276 7.787 34.5049 7.969C34.7909 8.14233 35.1116 8.28533 35.4669 8.398C35.8223 8.502 36.1819 8.59733 36.5459 8.684C36.9186 8.762 37.2826 8.84 37.6379 8.918C37.9933 8.996 38.3096 9.1 38.5869 9.23C38.8729 9.35133 39.0983 9.51167 39.2629 9.711C39.4363 9.91033 39.5229 10.1703 39.5229 10.491C39.5229 10.829 39.4536 11.1063 39.3149 11.323C39.1763 11.5397 38.9943 11.713 38.7689 11.843C38.5436 11.9643 38.2879 12.051 38.0019 12.103C37.7246 12.155 37.4473 12.181 37.1699 12.181C36.8233 12.181 36.4853 12.1377 36.1559 12.051C35.8266 11.9643 35.5363 11.83 35.2849 11.648C35.0423 11.466 34.8429 11.2363 34.6869 10.959C34.5396 10.673 34.4659 10.335 34.4659 9.945H33.2959C33.2959 10.5083 33.3956 10.998 33.5949 11.414C33.8029 11.8213 34.0803 12.1593 34.4269 12.428C34.7823 12.688 35.1896 12.883 35.6489 13.013C36.1169 13.143 36.6109 13.208 37.1309 13.208C37.5556 13.208 37.9803 13.156 38.4049 13.052C38.8383 12.9567 39.2283 12.8007 39.5749 12.584C39.9216 12.3587 40.2033 12.0727 40.4199 11.726C40.6453 11.3707 40.7579 10.946 40.7579 10.452C40.7579 9.99267 40.6713 9.61133 40.4979 9.308C40.3333 9.00467 40.1079 8.75333 39.8219 8.554C39.5446 8.35467 39.2283 8.19867 38.8729 8.086C38.5176 7.96467 38.1536 7.86067 37.7809 7.774C37.4169 7.68733 37.0573 7.60933 36.7019 7.54C36.3466 7.462 36.0259 7.36667 35.7399 7.254C35.4626 7.14133 35.2373 6.99833 35.0639 6.825C34.8993 6.643 34.8169 6.409 34.8169 6.123C34.8169 5.81967 34.8733 5.56833 34.9859 5.369C35.1073 5.161 35.2633 4.99633 35.4539 4.875C35.6533 4.75367 35.8786 4.667 36.1299 4.615C36.3813 4.563 36.6369 4.537 36.8969 4.537C37.5383 4.537 38.0626 4.68867 38.4699 4.992C38.8859 5.28667 39.1286 5.76767 39.1979 6.435ZM44.3646 4.758V13H45.5996V4.758H48.6936V3.718H41.2706V4.758H44.3646ZM59.8676 6.513H61.1026C61.0333 6.019 60.886 5.58567 60.6606 5.213C60.4353 4.83167 60.1536 4.51533 59.8156 4.264C59.4776 4.01267 59.092 3.822 58.6586 3.692C58.2253 3.562 57.766 3.497 57.2806 3.497C56.57 3.497 55.9373 3.627 55.3826 3.887C54.8366 4.13833 54.3773 4.485 54.0046 4.927C53.6406 5.369 53.3633 5.889 53.1726 6.487C52.982 7.07633 52.8866 7.709 52.8866 8.385C52.8866 9.061 52.9733 9.69367 53.1466 10.283C53.3286 10.8723 53.5973 11.3837 53.9526 11.817C54.308 12.2503 54.7543 12.5927 55.2916 12.844C55.829 13.0867 56.4573 13.208 57.1766 13.208C58.364 13.208 59.3 12.883 59.9846 12.233C60.6693 11.583 61.0723 10.673 61.1936 9.503H59.9586C59.9326 9.88433 59.8546 10.2397 59.7246 10.569C59.5946 10.8983 59.4126 11.1843 59.1786 11.427C58.9533 11.661 58.6803 11.8473 58.3596 11.986C58.0476 12.116 57.688 12.181 57.2806 12.181C56.726 12.181 56.2493 12.077 55.8506 11.869C55.452 11.661 55.1226 11.3837 54.8626 11.037C54.6113 10.6817 54.425 10.27 54.3036 9.802C54.1823 9.32533 54.1216 8.82267 54.1216 8.294C54.1216 7.80867 54.1823 7.34067 54.3036 6.89C54.425 6.43933 54.6113 6.04067 54.8626 5.694C55.1226 5.33867 55.4476 5.057 55.8376 4.849C56.2363 4.641 56.713 4.537 57.2676 4.537C57.9176 4.537 58.4766 4.70167 58.9446 5.031C59.4213 5.36033 59.729 5.85433 59.8676 6.513ZM62.7235 3.718V13H63.9585V8.749H68.8465V13H70.0815V3.718H68.8465V7.709H63.9585V3.718H62.7235ZM73.7043 9.165L75.2773 4.836H75.3033L76.8503 9.165H73.7043ZM74.6273 3.718L71.0133 13H72.2743L73.3143 10.205H77.2403L78.2543 13H79.6193L75.9923 3.718H74.6273ZM80.522 3.718V13H81.692V5.551H81.718L86.567 13H87.919V3.718H86.749V11.245H86.723L81.835 3.718H80.522ZM96.4428 6.513H97.6778C97.6085 6.019 97.4612 5.58567 97.2358 5.213C97.0105 4.83167 96.7288 4.51533 96.3908 4.264C96.0528 4.01267 95.6672 3.822 95.2338 3.692C94.8005 3.562 94.3412 3.497 93.8558 3.497C93.1452 3.497 92.5125 3.627 91.9578 3.887C91.4118 4.13833 90.9525 4.485 90.5798 4.927C90.2158 5.369 89.9385 5.889 89.7478 6.487C89.5572 7.07633 89.4618 7.709 89.4618 8.385C89.4618 9.061 89.5485 9.69367 89.7218 10.283C89.9038 10.8723 90.1725 11.3837 90.5278 11.817C90.8832 12.2503 91.3295 12.5927 91.8668 12.844C92.4042 13.0867 93.0325 13.208 93.7518 13.208C94.9392 13.208 95.8752 12.883 96.5598 12.233C97.2445 11.583 97.6475 10.673 97.7688 9.503H96.5338C96.5078 9.88433 96.4298 10.2397 96.2998 10.569C96.1698 10.8983 95.9878 11.1843 95.7538 11.427C95.5285 11.661 95.2555 11.8473 94.9348 11.986C94.6228 12.116 94.2632 12.181 93.8558 12.181C93.3012 12.181 92.8245 12.077 92.4258 11.869C92.0272 11.661 91.6978 11.3837 91.4378 11.037C91.1865 10.6817 91.0002 10.27 90.8788 9.802C90.7575 9.32533 90.6968 8.82267 90.6968 8.294C90.6968 7.80867 90.7575 7.34067 90.8788 6.89C91.0002 6.43933 91.1865 6.04067 91.4378 5.694C91.6978 5.33867 92.0228 5.057 92.4128 4.849C92.8115 4.641 93.2882 4.537 93.8428 4.537C94.4928 4.537 95.0518 4.70167 95.5198 5.031C95.9965 5.36033 96.3042 5.85433 96.4428 6.513ZM99.2987 3.718V13H105.747V11.96H100.534V8.749H105.357V7.709H100.534V4.758H105.708V3.718H99.2987ZM112.97 4.758V13H114.205V4.758H117.299V3.718H109.876V4.758H112.97ZM119.044 8.359C119.044 7.891 119.105 7.43167 119.226 6.981C119.347 6.52167 119.538 6.11 119.798 5.746C120.058 5.382 120.392 5.09167 120.799 4.875C121.206 4.64967 121.692 4.537 122.255 4.537C122.818 4.537 123.304 4.64967 123.711 4.875C124.118 5.09167 124.452 5.382 124.712 5.746C124.972 6.11 125.163 6.52167 125.284 6.981C125.405 7.43167 125.466 7.891 125.466 8.359C125.466 8.827 125.405 9.29067 125.284 9.75C125.163 10.2007 124.972 10.608 124.712 10.972C124.452 11.336 124.118 11.6307 123.711 11.856C123.304 12.0727 122.818 12.181 122.255 12.181C121.692 12.181 121.206 12.0727 120.799 11.856C120.392 11.6307 120.058 11.336 119.798 10.972C119.538 10.608 119.347 10.2007 119.226 9.75C119.105 9.29067 119.044 8.827 119.044 8.359ZM117.809 8.359C117.809 8.99167 117.9 9.60267 118.082 10.192C118.273 10.7727 118.554 11.2883 118.927 11.739C119.3 12.1897 119.763 12.5493 120.318 12.818C120.873 13.078 121.518 13.208 122.255 13.208C122.992 13.208 123.637 13.078 124.192 12.818C124.747 12.5493 125.21 12.1897 125.583 11.739C125.956 11.2883 126.233 10.7727 126.415 10.192C126.606 9.60267 126.701 8.99167 126.701 8.359C126.701 7.72633 126.606 7.11967 126.415 6.539C126.233 5.94967 125.956 5.42967 125.583 4.979C125.21 4.52833 124.747 4.16867 124.192 3.9C123.637 3.63133 122.992 3.497 122.255 3.497C121.518 3.497 120.873 3.63133 120.318 3.9C119.763 4.16867 119.3 4.52833 118.927 4.979C118.554 5.42967 118.273 5.94967 118.082 6.539C117.9 7.11967 117.809 7.72633 117.809 8.359ZM131.824 3.718V13H133.059V9.035H136.075C136.378 9.035 136.621 9.08267 136.803 9.178C136.985 9.26467 137.132 9.386 137.245 9.542C137.358 9.68933 137.44 9.867 137.492 10.075C137.544 10.2743 137.587 10.4867 137.622 10.712C137.665 10.9373 137.691 11.167 137.7 11.401C137.709 11.635 137.717 11.856 137.726 12.064C137.735 12.2633 137.752 12.4453 137.778 12.61C137.813 12.7747 137.873 12.9047 137.96 13H139.338C139.208 12.844 139.108 12.6663 139.039 12.467C138.978 12.259 138.931 12.0423 138.896 11.817C138.861 11.5917 138.84 11.362 138.831 11.128C138.822 10.894 138.809 10.6643 138.792 10.439C138.766 10.2137 138.727 9.997 138.675 9.789C138.632 9.581 138.558 9.39467 138.454 9.23C138.359 9.05667 138.224 8.90933 138.051 8.788C137.886 8.66667 137.67 8.58 137.401 8.528V8.502C137.964 8.346 138.372 8.05567 138.623 7.631C138.883 7.20633 139.013 6.71233 139.013 6.149C139.013 5.395 138.762 4.80133 138.259 4.368C137.765 3.93467 137.076 3.718 136.192 3.718H131.824ZM135.633 7.995H133.059V4.758H136.127C136.708 4.758 137.128 4.90533 137.388 5.2C137.648 5.49467 137.778 5.876 137.778 6.344C137.778 6.682 137.717 6.95933 137.596 7.176C137.483 7.384 137.327 7.553 137.128 7.683C136.937 7.80433 136.712 7.88667 136.452 7.93C136.192 7.97333 135.919 7.995 135.633 7.995ZM140.723 3.718V13H147.171V11.96H141.958V8.749H146.781V7.709H141.958V4.758H147.132V3.718H140.723ZM155.613 11.843L155.938 13H156.718V8.112H152.649V9.152H155.613C155.63 9.57667 155.574 9.97533 155.444 10.348C155.314 10.712 155.119 11.0327 154.859 11.31C154.607 11.5787 154.295 11.791 153.923 11.947C153.55 12.103 153.121 12.181 152.636 12.181C152.116 12.181 151.656 12.0813 151.258 11.882C150.868 11.674 150.538 11.401 150.27 11.063C150.001 10.7163 149.797 10.322 149.659 9.88C149.52 9.42933 149.451 8.96133 149.451 8.476C149.451 7.982 149.511 7.501 149.633 7.033C149.754 6.55633 149.94 6.136 150.192 5.772C150.452 5.39933 150.781 5.10033 151.18 4.875C151.587 4.64967 152.072 4.537 152.636 4.537C152.982 4.537 153.307 4.58033 153.611 4.667C153.923 4.745 154.2 4.86633 154.443 5.031C154.685 5.19567 154.889 5.408 155.054 5.668C155.218 5.91933 155.331 6.22267 155.392 6.578H156.627C156.54 6.032 156.375 5.56833 156.133 5.187C155.899 4.797 155.604 4.47633 155.249 4.225C154.902 3.97367 154.503 3.79167 154.053 3.679C153.611 3.55767 153.138 3.497 152.636 3.497C151.899 3.497 151.253 3.63567 150.699 3.913C150.153 4.18167 149.693 4.54567 149.321 5.005C148.957 5.46433 148.679 6.00167 148.489 6.617C148.307 7.22367 148.216 7.865 148.216 8.541C148.216 9.14767 148.315 9.73267 148.515 10.296C148.714 10.8593 149.004 11.3577 149.386 11.791C149.767 12.2243 150.231 12.571 150.777 12.831C151.323 13.0823 151.942 13.208 152.636 13.208C153.182 13.208 153.723 13.104 154.261 12.896C154.798 12.6793 155.249 12.3283 155.613 11.843ZM158.587 3.718V13H159.822V3.718H158.587ZM167.268 6.435H168.438C168.421 5.92367 168.321 5.486 168.139 5.122C167.966 4.74933 167.723 4.44167 167.411 4.199C167.108 3.95633 166.753 3.77867 166.345 3.666C165.938 3.55333 165.496 3.497 165.019 3.497C164.595 3.497 164.179 3.55333 163.771 3.666C163.373 3.77 163.013 3.93467 162.692 4.16C162.38 4.37667 162.129 4.65833 161.938 5.005C161.748 5.343 161.652 5.746 161.652 6.214C161.652 6.63867 161.735 6.994 161.899 7.28C162.073 7.55733 162.298 7.787 162.575 7.969C162.861 8.14233 163.182 8.28533 163.537 8.398C163.893 8.502 164.252 8.59733 164.616 8.684C164.989 8.762 165.353 8.84 165.708 8.918C166.064 8.996 166.38 9.1 166.657 9.23C166.943 9.35133 167.169 9.51167 167.333 9.711C167.507 9.91033 167.593 10.1703 167.593 10.491C167.593 10.829 167.524 11.1063 167.385 11.323C167.247 11.5397 167.065 11.713 166.839 11.843C166.614 11.9643 166.358 12.051 166.072 12.103C165.795 12.155 165.518 12.181 165.24 12.181C164.894 12.181 164.556 12.1377 164.226 12.051C163.897 11.9643 163.607 11.83 163.355 11.648C163.113 11.466 162.913 11.2363 162.757 10.959C162.61 10.673 162.536 10.335 162.536 9.945H161.366C161.366 10.5083 161.466 10.998 161.665 11.414C161.873 11.8213 162.151 12.1593 162.497 12.428C162.853 12.688 163.26 12.883 163.719 13.013C164.187 13.143 164.681 13.208 165.201 13.208C165.626 13.208 166.051 13.156 166.475 13.052C166.909 12.9567 167.299 12.8007 167.645 12.584C167.992 12.3587 168.274 12.0727 168.49 11.726C168.716 11.3707 168.828 10.946 168.828 10.452C168.828 9.99267 168.742 9.61133 168.568 9.308C168.404 9.00467 168.178 8.75333 167.892 8.554C167.615 8.35467 167.299 8.19867 166.943 8.086C166.588 7.96467 166.224 7.86067 165.851 7.774C165.487 7.68733 165.128 7.60933 164.772 7.54C164.417 7.462 164.096 7.36667 163.81 7.254C163.533 7.14133 163.308 6.99833 163.134 6.825C162.97 6.643 162.887 6.409 162.887 6.123C162.887 5.81967 162.944 5.56833 163.056 5.369C163.178 5.161 163.334 4.99633 163.524 4.875C163.724 4.75367 163.949 4.667 164.2 4.615C164.452 4.563 164.707 4.537 164.967 4.537C165.609 4.537 166.133 4.68867 166.54 4.992C166.956 5.28667 167.199 5.76767 167.268 6.435ZM172.435 4.758V13H173.67V4.758H176.764V3.718H169.341V4.758H172.435ZM177.794 3.718V13H184.242V11.96H179.029V8.749H183.852V7.709H179.029V4.758H184.203V3.718H177.794ZM185.741 3.718V13H186.976V9.035H189.992C190.295 9.035 190.538 9.08267 190.72 9.178C190.902 9.26467 191.049 9.386 191.162 9.542C191.275 9.68933 191.357 9.867 191.409 10.075C191.461 10.2743 191.504 10.4867 191.539 10.712C191.582 10.9373 191.608 11.167 191.617 11.401C191.626 11.635 191.634 11.856 191.643 12.064C191.652 12.2633 191.669 12.4453 191.695 12.61C191.73 12.7747 191.79 12.9047 191.877 13H193.255C193.125 12.844 193.025 12.6663 192.956 12.467C192.895 12.259 192.848 12.0423 192.813 11.817C192.778 11.5917 192.757 11.362 192.748 11.128C192.739 10.894 192.726 10.6643 192.709 10.439C192.683 10.2137 192.644 9.997 192.592 9.789C192.549 9.581 192.475 9.39467 192.371 9.23C192.276 9.05667 192.141 8.90933 191.968 8.788C191.803 8.66667 191.587 8.58 191.318 8.528V8.502C191.881 8.346 192.289 8.05567 192.54 7.631C192.8 7.20633 192.93 6.71233 192.93 6.149C192.93 5.395 192.679 4.80133 192.176 4.368C191.682 3.93467 190.993 3.718 190.109 3.718H185.741ZM189.55 7.995H186.976V4.758H190.044C190.625 4.758 191.045 4.90533 191.305 5.2C191.565 5.49467 191.695 5.876 191.695 6.344C191.695 6.682 191.634 6.95933 191.513 7.176C191.4 7.384 191.244 7.553 191.045 7.683C190.854 7.80433 190.629 7.88667 190.369 7.93C190.109 7.97333 189.836 7.995 189.55 7.995ZM198.259 3.718V13H199.494V8.749H203.758V7.709H199.494V4.758H204.356V3.718H198.259ZM206.438 8.359C206.438 7.891 206.499 7.43167 206.62 6.981C206.742 6.52167 206.932 6.11 207.192 5.746C207.452 5.382 207.786 5.09167 208.193 4.875C208.601 4.64967 209.086 4.537 209.649 4.537C210.213 4.537 210.698 4.64967 211.105 4.875C211.513 5.09167 211.846 5.382 212.106 5.746C212.366 6.11 212.557 6.52167 212.678 6.981C212.8 7.43167 212.86 7.891 212.86 8.359C212.86 8.827 212.8 9.29067 212.678 9.75C212.557 10.2007 212.366 10.608 212.106 10.972C211.846 11.336 211.513 11.6307 211.105 11.856C210.698 12.0727 210.213 12.181 209.649 12.181C209.086 12.181 208.601 12.0727 208.193 11.856C207.786 11.6307 207.452 11.336 207.192 10.972C206.932 10.608 206.742 10.2007 206.62 9.75C206.499 9.29067 206.438 8.827 206.438 8.359ZM205.203 8.359C205.203 8.99167 205.294 9.60267 205.476 10.192C205.667 10.7727 205.949 11.2883 206.321 11.739C206.694 12.1897 207.158 12.5493 207.712 12.818C208.267 13.078 208.913 13.208 209.649 13.208C210.386 13.208 211.032 13.078 211.586 12.818C212.141 12.5493 212.605 12.1897 212.977 11.739C213.35 11.2883 213.627 10.7727 213.809 10.192C214 9.60267 214.095 8.99167 214.095 8.359C214.095 7.72633 214 7.11967 213.809 6.539C213.627 5.94967 213.35 5.42967 212.977 4.979C212.605 4.52833 212.141 4.16867 211.586 3.9C211.032 3.63133 210.386 3.497 209.649 3.497C208.913 3.497 208.267 3.63133 207.712 3.9C207.158 4.16867 206.694 4.52833 206.321 4.979C205.949 5.42967 205.667 5.94967 205.476 6.539C205.294 7.11967 205.203 7.72633 205.203 8.359ZM215.6 3.718V13H216.835V9.035H219.851C220.155 9.035 220.397 9.08267 220.579 9.178C220.761 9.26467 220.909 9.386 221.021 9.542C221.134 9.68933 221.216 9.867 221.268 10.075C221.32 10.2743 221.364 10.4867 221.398 10.712C221.442 10.9373 221.468 11.167 221.476 11.401C221.485 11.635 221.494 11.856 221.502 12.064C221.511 12.2633 221.528 12.4453 221.554 12.61C221.589 12.7747 221.65 12.9047 221.736 13H223.114C222.984 12.844 222.885 12.6663 222.815 12.467C222.755 12.259 222.707 12.0423 222.672 11.817C222.638 11.5917 222.616 11.362 222.607 11.128C222.599 10.894 222.586 10.6643 222.568 10.439C222.542 10.2137 222.503 9.997 222.451 9.789C222.408 9.581 222.334 9.39467 222.23 9.23C222.135 9.05667 222.001 8.90933 221.827 8.788C221.663 8.66667 221.446 8.58 221.177 8.528V8.502C221.741 8.346 222.148 8.05567 222.399 7.631C222.659 7.20633 222.789 6.71233 222.789 6.149C222.789 5.395 222.538 4.80133 222.035 4.368C221.541 3.93467 220.852 3.718 219.968 3.718H215.6ZM219.409 7.995H216.835V4.758H219.903C220.484 4.758 220.904 4.90533 221.164 5.2C221.424 5.49467 221.554 5.876 221.554 6.344C221.554 6.682 221.494 6.95933 221.372 7.176C221.26 7.384 221.104 7.553 220.904 7.683C220.714 7.80433 220.488 7.88667 220.228 7.93C219.968 7.97333 219.695 7.995 219.409 7.995ZM230.224 4.758V13H231.459V4.758H234.553V3.718H227.13V4.758H230.224ZM235.583 3.718V13H236.818V8.749H241.706V13H242.941V3.718H241.706V7.709H236.818V3.718H235.583ZM244.965 3.718V13H251.413V11.96H246.2V8.749H251.023V7.709H246.2V4.758H251.374V3.718H244.965ZM261.249 10.686V3.718H260.014V10.504C260.014 11.0153 259.906 11.4227 259.689 11.726C259.481 12.0293 259.095 12.181 258.532 12.181C258.229 12.181 257.977 12.1377 257.778 12.051C257.587 11.9557 257.436 11.8257 257.323 11.661C257.219 11.4963 257.145 11.3013 257.102 11.076C257.059 10.8507 257.037 10.6037 257.037 10.335V9.945H255.802V10.517C255.802 11.401 256.036 12.0727 256.504 12.532C256.972 12.9827 257.639 13.208 258.506 13.208C259.026 13.208 259.459 13.1387 259.806 13C260.161 12.8527 260.443 12.662 260.651 12.428C260.868 12.1853 261.019 11.9123 261.106 11.609C261.201 11.3057 261.249 10.998 261.249 10.686ZM263.986 8.359C263.986 7.891 264.047 7.43167 264.168 6.981C264.29 6.52167 264.48 6.11 264.74 5.746C265 5.382 265.334 5.09167 265.741 4.875C266.149 4.64967 266.634 4.537 267.197 4.537C267.761 4.537 268.246 4.64967 268.653 4.875C269.061 5.09167 269.394 5.382 269.654 5.746C269.914 6.11 270.105 6.52167 270.226 6.981C270.348 7.43167 270.408 7.891 270.408 8.359C270.408 8.827 270.348 9.29067 270.226 9.75C270.105 10.2007 269.914 10.608 269.654 10.972C269.394 11.336 269.061 11.6307 268.653 11.856C268.246 12.0727 267.761 12.181 267.197 12.181C266.634 12.181 266.149 12.0727 265.741 11.856C265.334 11.6307 265 11.336 264.74 10.972C264.48 10.608 264.29 10.2007 264.168 9.75C264.047 9.29067 263.986 8.827 263.986 8.359ZM262.751 8.359C262.751 8.99167 262.842 9.60267 263.024 10.192C263.215 10.7727 263.497 11.2883 263.869 11.739C264.242 12.1897 264.706 12.5493 265.26 12.818C265.815 13.078 266.461 13.208 267.197 13.208C267.934 13.208 268.58 13.078 269.134 12.818C269.689 12.5493 270.153 12.1897 270.525 11.739C270.898 11.2883 271.175 10.7727 271.357 10.192C271.548 9.60267 271.643 8.99167 271.643 8.359C271.643 7.72633 271.548 7.11967 271.357 6.539C271.175 5.94967 270.898 5.42967 270.525 4.979C270.153 4.52833 269.689 4.16867 269.134 3.9C268.58 3.63133 267.934 3.497 267.197 3.497C266.461 3.497 265.815 3.63133 265.26 3.9C264.706 4.16867 264.242 4.52833 263.869 4.979C263.497 5.42967 263.215 5.94967 263.024 6.539C262.842 7.11967 262.751 7.72633 262.751 8.359ZM274.383 7.709V4.758H276.853C277.122 4.758 277.373 4.77533 277.607 4.81C277.85 4.836 278.062 4.901 278.244 5.005C278.426 5.109 278.569 5.25633 278.673 5.447C278.777 5.63767 278.829 5.89767 278.829 6.227C278.829 6.721 278.673 7.09367 278.361 7.345C278.058 7.58767 277.555 7.709 276.853 7.709H274.383ZM273.148 3.718V13H277.633C278.093 13 278.496 12.9263 278.842 12.779C279.198 12.623 279.492 12.4237 279.726 12.181C279.969 11.9297 280.151 11.6437 280.272 11.323C280.394 11.0023 280.454 10.673 280.454 10.335C280.454 9.763 280.303 9.27767 279.999 8.879C279.696 8.48033 279.258 8.22033 278.686 8.099V8.073C279.128 7.89967 279.466 7.63533 279.7 7.28C279.943 6.916 280.064 6.487 280.064 5.993C280.064 5.525 279.956 5.13067 279.739 4.81C279.531 4.48933 279.276 4.238 278.972 4.056C278.834 3.96933 278.665 3.90433 278.465 3.861C278.275 3.81767 278.067 3.78733 277.841 3.77C277.616 3.744 277.386 3.731 277.152 3.731C276.927 3.72233 276.715 3.718 276.515 3.718H273.148ZM274.383 11.96V8.749H277.204C277.464 8.749 277.716 8.775 277.958 8.827C278.201 8.87033 278.413 8.95267 278.595 9.074C278.786 9.18667 278.938 9.34267 279.05 9.542C279.163 9.74133 279.219 9.99267 279.219 10.296C279.219 10.816 279.063 11.2233 278.751 11.518C278.448 11.8127 278.023 11.96 277.477 11.96H274.383ZM292.608 11.843L292.933 13H293.713V8.112H289.644V9.152H292.608C292.625 9.57667 292.569 9.97533 292.439 10.348C292.309 10.712 292.114 11.0327 291.854 11.31C291.603 11.5787 291.291 11.791 290.918 11.947C290.545 12.103 290.116 12.181 289.631 12.181C289.111 12.181 288.652 12.0813 288.253 11.882C287.863 11.674 287.534 11.401 287.265 11.063C286.996 10.7163 286.793 10.322 286.654 9.88C286.515 9.42933 286.446 8.96133 286.446 8.476C286.446 7.982 286.507 7.501 286.628 7.033C286.749 6.55633 286.936 6.136 287.187 5.772C287.447 5.39933 287.776 5.10033 288.175 4.875C288.582 4.64967 289.068 4.537 289.631 4.537C289.978 4.537 290.303 4.58033 290.606 4.667C290.918 4.745 291.195 4.86633 291.438 5.031C291.681 5.19567 291.884 5.408 292.049 5.668C292.214 5.91933 292.326 6.22267 292.387 6.578H293.622C293.535 6.032 293.371 5.56833 293.128 5.187C292.894 4.797 292.599 4.47633 292.244 4.225C291.897 3.97367 291.499 3.79167 291.048 3.679C290.606 3.55767 290.134 3.497 289.631 3.497C288.894 3.497 288.249 3.63567 287.694 3.913C287.148 4.18167 286.689 4.54567 286.316 5.005C285.952 5.46433 285.675 6.00167 285.484 6.617C285.302 7.22367 285.211 7.865 285.211 8.541C285.211 9.14767 285.311 9.73267 285.51 10.296C285.709 10.8593 286 11.3577 286.381 11.791C286.762 12.2243 287.226 12.571 287.772 12.831C288.318 13.0823 288.938 13.208 289.631 13.208C290.177 13.208 290.719 13.104 291.256 12.896C291.793 12.6793 292.244 12.3283 292.608 11.843ZM302.94 9.646V3.718H301.705V9.646C301.705 10.478 301.497 11.1107 301.081 11.544C300.674 11.9687 300.076 12.181 299.287 12.181C298.455 12.181 297.818 11.9687 297.376 11.544C296.934 11.1107 296.713 10.478 296.713 9.646V3.718H295.478V9.646C295.478 10.8853 295.812 11.791 296.479 12.363C297.155 12.9263 298.091 13.208 299.287 13.208C300.457 13.208 301.358 12.9133 301.991 12.324C302.624 11.726 302.94 10.8333 302.94 9.646ZM306.511 9.165L308.084 4.836H308.11L309.657 9.165H306.511ZM307.434 3.718L303.82 13H305.081L306.121 10.205H310.047L311.061 13H312.426L308.799 3.718H307.434ZM313.342 3.718V13H314.577V9.035H317.593C317.896 9.035 318.139 9.08267 318.321 9.178C318.503 9.26467 318.65 9.386 318.763 9.542C318.875 9.68933 318.958 9.867 319.01 10.075C319.062 10.2743 319.105 10.4867 319.14 10.712C319.183 10.9373 319.209 11.167 319.218 11.401C319.226 11.635 319.235 11.856 319.244 12.064C319.252 12.2633 319.27 12.4453 319.296 12.61C319.33 12.7747 319.391 12.9047 319.478 13H320.856C320.726 12.844 320.626 12.6663 320.557 12.467C320.496 12.259 320.448 12.0423 320.414 11.817C320.379 11.5917 320.357 11.362 320.349 11.128C320.34 10.894 320.327 10.6643 320.31 10.439C320.284 10.2137 320.245 9.997 320.193 9.789C320.149 9.581 320.076 9.39467 319.972 9.23C319.876 9.05667 319.742 8.90933 319.569 8.788C319.404 8.66667 319.187 8.58 318.919 8.528V8.502C319.482 8.346 319.889 8.05567 320.141 7.631C320.401 7.20633 320.531 6.71233 320.531 6.149C320.531 5.395 320.279 4.80133 319.777 4.368C319.283 3.93467 318.594 3.718 317.71 3.718H313.342ZM317.151 7.995H314.577V4.758H317.645C318.225 4.758 318.646 4.90533 318.906 5.2C319.166 5.49467 319.296 5.876 319.296 6.344C319.296 6.682 319.235 6.95933 319.114 7.176C319.001 7.384 318.845 7.553 318.646 7.683C318.455 7.80433 318.23 7.88667 317.97 7.93C317.71 7.97333 317.437 7.995 317.151 7.995ZM323.84 9.165L325.413 4.836H325.439L326.986 9.165H323.84ZM324.763 3.718L321.149 13H322.41L323.45 10.205H327.376L328.39 13H329.755L326.128 3.718H324.763ZM330.658 3.718V13H331.828V5.551H331.854L336.703 13H338.055V3.718H336.885V11.245H336.859L331.971 3.718H330.658ZM342.159 4.758V13H343.394V4.758H346.488V3.718H339.065V4.758H342.159ZM347.517 3.718V13H353.965V11.96H348.752V8.749H353.575V7.709H348.752V4.758H353.926V3.718H347.517ZM355.465 3.718V13H361.913V11.96H356.7V8.749H361.523V7.709H356.7V4.758H361.874V3.718H355.465ZM364.647 11.96V4.758H366.727C367.299 4.758 367.78 4.84033 368.17 5.005C368.56 5.161 368.876 5.395 369.119 5.707C369.37 6.01033 369.548 6.383 369.652 6.825C369.765 7.25833 369.821 7.75233 369.821 8.307C369.821 8.879 369.76 9.36867 369.639 9.776C369.526 10.1747 369.379 10.5083 369.197 10.777C369.015 11.0457 368.807 11.258 368.573 11.414C368.348 11.57 368.118 11.6913 367.884 11.778C367.65 11.856 367.429 11.908 367.221 11.934C367.013 11.9513 366.84 11.96 366.701 11.96H364.647ZM363.412 3.718V13H366.597C367.368 13 368.036 12.8917 368.599 12.675C369.162 12.4583 369.626 12.1463 369.99 11.739C370.354 11.323 370.623 10.816 370.796 10.218C370.969 9.61133 371.056 8.918 371.056 8.138C371.056 6.64733 370.67 5.538 369.899 4.81C369.128 4.082 368.027 3.718 366.597 3.718H363.412ZM377.184 6.175C377.184 5.941 377.228 5.73733 377.314 5.564C377.401 5.39067 377.514 5.24333 377.652 5.122C377.8 5.00067 377.973 4.90967 378.172 4.849C378.372 4.78833 378.58 4.758 378.796 4.758C379.247 4.758 379.615 4.87933 379.901 5.122C380.196 5.356 380.343 5.707 380.343 6.175C380.343 6.643 380.2 7.007 379.914 7.267C379.628 7.527 379.264 7.657 378.822 7.657C378.597 7.657 378.385 7.62667 378.185 7.566C377.986 7.50533 377.813 7.41433 377.665 7.293C377.518 7.17167 377.401 7.02 377.314 6.838C377.228 6.64733 377.184 6.42633 377.184 6.175ZM376.014 6.136C376.014 6.552 376.131 6.93767 376.365 7.293C376.599 7.63967 376.911 7.891 377.301 8.047C376.781 8.229 376.383 8.52367 376.105 8.931C375.828 9.32967 375.689 9.802 375.689 10.348C375.689 10.816 375.767 11.2277 375.923 11.583C376.088 11.9297 376.309 12.22 376.586 12.454C376.872 12.688 377.206 12.8613 377.587 12.974C377.969 13.0867 378.38 13.143 378.822 13.143C379.247 13.143 379.646 13.0823 380.018 12.961C380.391 12.8397 380.712 12.662 380.98 12.428C381.258 12.1853 381.474 11.8907 381.63 11.544C381.795 11.1973 381.877 10.7987 381.877 10.348C381.877 9.776 381.743 9.295 381.474 8.905C381.206 8.50633 380.794 8.22033 380.239 8.047C380.629 7.87367 380.937 7.618 381.162 7.28C381.396 6.93333 381.513 6.552 381.513 6.136C381.513 5.84133 381.461 5.55533 381.357 5.278C381.253 4.992 381.089 4.74067 380.863 4.524C380.647 4.29867 380.361 4.121 380.005 3.991C379.65 3.85233 379.221 3.783 378.718 3.783C378.363 3.783 378.021 3.835 377.691 3.939C377.371 4.043 377.085 4.19467 376.833 4.394C376.582 4.59333 376.383 4.84033 376.235 5.135C376.088 5.421 376.014 5.75467 376.014 6.136ZM376.859 10.4C376.859 10.1313 376.907 9.88867 377.002 9.672C377.106 9.45533 377.245 9.269 377.418 9.113C377.6 8.957 377.808 8.84 378.042 8.762C378.285 8.67533 378.541 8.632 378.809 8.632C379.069 8.632 379.312 8.67967 379.537 8.775C379.771 8.86167 379.975 8.983 380.148 9.139C380.322 9.295 380.456 9.48133 380.551 9.698C380.655 9.906 380.707 10.1357 380.707 10.387C380.707 10.647 380.66 10.8853 380.564 11.102C380.478 11.3187 380.348 11.5093 380.174 11.674C380.01 11.83 379.81 11.9557 379.576 12.051C379.351 12.1377 379.1 12.181 378.822 12.181C378.25 12.181 377.778 12.025 377.405 11.713C377.041 11.3923 376.859 10.9547 376.859 10.4ZM383.043 8.866V9.906H386.8V8.866H383.043ZM396.845 13L399.328 3.718H398.093L396.208 11.44H396.182L394.128 3.718H392.789L390.709 11.44H390.683L388.863 3.718H387.602L389.981 13H391.268L393.413 5.2H393.439L395.558 13H396.845ZM400.495 3.718V13H406.943V11.96H401.73V8.749H406.553V7.709H401.73V4.758H406.904V3.718H400.495ZM408.442 3.718V13H414.89V11.96H409.677V8.749H414.5V7.709H409.677V4.758H414.851V3.718H408.442ZM416.389 3.718V13H417.624V9.75L419.171 8.307L422.525 13H424.085L420.016 7.462L423.929 3.718H422.33L417.624 8.346V3.718H416.389ZM429.914 8.164V4.758H432.332C433.034 4.758 433.545 4.90533 433.866 5.2C434.195 5.486 434.36 5.90633 434.36 6.461C434.36 7.01567 434.195 7.44033 433.866 7.735C433.545 8.02967 433.034 8.17267 432.332 8.164H429.914ZM428.679 3.718V13H429.914V9.204H432.748C433.684 9.21267 434.39 8.97433 434.867 8.489C435.352 8.00367 435.595 7.32767 435.595 6.461C435.595 5.59433 435.352 4.92267 434.867 4.446C434.39 3.96067 433.684 3.718 432.748 3.718H428.679ZM436.887 6.279V13H437.992V10.01C437.992 9.57667 438.036 9.19533 438.122 8.866C438.209 8.528 438.348 8.242 438.538 8.008C438.729 7.774 438.98 7.59633 439.292 7.475C439.604 7.35367 439.981 7.293 440.423 7.293V6.123C439.825 6.10567 439.331 6.227 438.941 6.487C438.551 6.747 438.222 7.15 437.953 7.696H437.927V6.279H436.887ZM441.833 9.646C441.833 9.23867 441.885 8.879 441.989 8.567C442.101 8.24633 442.253 7.97767 442.444 7.761C442.634 7.54433 442.855 7.37967 443.107 7.267C443.367 7.15433 443.64 7.098 443.926 7.098C444.212 7.098 444.48 7.15433 444.732 7.267C444.992 7.37967 445.217 7.54433 445.408 7.761C445.598 7.97767 445.746 8.24633 445.85 8.567C445.962 8.879 446.019 9.23867 446.019 9.646C446.019 10.0533 445.962 10.4173 445.85 10.738C445.746 11.05 445.598 11.3143 445.408 11.531C445.217 11.739 444.992 11.8993 444.732 12.012C444.48 12.1247 444.212 12.181 443.926 12.181C443.64 12.181 443.367 12.1247 443.107 12.012C442.855 11.8993 442.634 11.739 442.444 11.531C442.253 11.3143 442.101 11.05 441.989 10.738C441.885 10.4173 441.833 10.0533 441.833 9.646ZM440.663 9.646C440.663 10.14 440.732 10.5993 440.871 11.024C441.009 11.4487 441.217 11.8213 441.495 12.142C441.772 12.454 442.114 12.701 442.522 12.883C442.929 13.0563 443.397 13.143 443.926 13.143C444.463 13.143 444.931 13.0563 445.33 12.883C445.737 12.701 446.079 12.454 446.357 12.142C446.634 11.8213 446.842 11.4487 446.981 11.024C447.119 10.5993 447.189 10.14 447.189 9.646C447.189 9.152 447.119 8.69267 446.981 8.268C446.842 7.83467 446.634 7.462 446.357 7.15C446.079 6.82933 445.737 6.578 445.33 6.396C444.931 6.214 444.463 6.123 443.926 6.123C443.397 6.123 442.929 6.214 442.522 6.396C442.114 6.578 441.772 6.82933 441.495 7.15C441.217 7.462 441.009 7.83467 440.871 8.268C440.732 8.69267 440.663 9.152 440.663 9.646ZM449.298 9.698C449.298 9.36867 449.332 9.048 449.402 8.736C449.471 8.424 449.584 8.14667 449.74 7.904C449.896 7.66133 450.104 7.46633 450.364 7.319C450.624 7.17167 450.94 7.098 451.313 7.098C451.694 7.098 452.019 7.17167 452.288 7.319C452.556 7.45767 452.773 7.644 452.938 7.878C453.111 8.112 453.237 8.385 453.315 8.697C453.393 9.00033 453.432 9.31667 453.432 9.646C453.432 9.958 453.393 10.2657 453.315 10.569C453.245 10.8723 453.128 11.1453 452.964 11.388C452.799 11.622 452.587 11.8127 452.327 11.96C452.067 12.1073 451.75 12.181 451.378 12.181C451.022 12.181 450.71 12.1117 450.442 11.973C450.182 11.8343 449.965 11.648 449.792 11.414C449.627 11.18 449.501 10.9157 449.415 10.621C449.337 10.3177 449.298 10.01 449.298 9.698ZM454.498 13V3.718H453.393V7.176H453.367C453.245 6.97667 453.094 6.812 452.912 6.682C452.738 6.54333 452.552 6.435 452.353 6.357C452.153 6.27033 451.954 6.20967 451.755 6.175C451.555 6.14033 451.369 6.123 451.196 6.123C450.684 6.123 450.234 6.21833 449.844 6.409C449.462 6.591 449.142 6.84233 448.882 7.163C448.63 7.475 448.44 7.84333 448.31 8.268C448.188 8.69267 448.128 9.14333 448.128 9.62C448.128 10.0967 448.193 10.5473 448.323 10.972C448.453 11.3967 448.643 11.7693 448.895 12.09C449.155 12.4107 449.475 12.6663 449.857 12.857C450.247 13.0477 450.702 13.143 451.222 13.143C451.69 13.143 452.119 13.0607 452.509 12.896C452.899 12.7313 453.185 12.4627 453.367 12.09H453.393V13H454.498ZM461.762 13V6.279H460.657V10.075C460.657 10.3783 460.613 10.66 460.527 10.92C460.449 11.1713 460.327 11.3923 460.163 11.583C459.998 11.7737 459.79 11.921 459.539 12.025C459.296 12.129 459.006 12.181 458.668 12.181C458.243 12.181 457.909 12.0597 457.667 11.817C457.424 11.5743 457.303 11.245 457.303 10.829V6.279H456.198V10.699C456.198 11.063 456.232 11.3967 456.302 11.7C456.38 11.9947 456.51 12.2503 456.692 12.467C456.874 12.6837 457.112 12.8527 457.407 12.974C457.701 13.0867 458.07 13.143 458.512 13.143C459.006 13.143 459.435 13.0477 459.799 12.857C460.163 12.6577 460.462 12.35 460.696 11.934H460.722V13H461.762ZM467.984 8.437H469.128C469.085 8.03833 468.981 7.696 468.816 7.41C468.652 7.11533 468.439 6.87267 468.179 6.682C467.928 6.49133 467.633 6.35267 467.295 6.266C466.966 6.17067 466.611 6.123 466.229 6.123C465.701 6.123 465.237 6.21833 464.838 6.409C464.44 6.591 464.106 6.84667 463.837 7.176C463.577 7.49667 463.382 7.878 463.252 8.32C463.122 8.75333 463.057 9.22133 463.057 9.724C463.057 10.2267 463.122 10.6903 463.252 11.115C463.391 11.531 463.59 11.8907 463.85 12.194C464.119 12.4973 464.448 12.7313 464.838 12.896C465.237 13.0607 465.692 13.143 466.203 13.143C467.061 13.143 467.737 12.9177 468.231 12.467C468.734 12.0163 469.046 11.375 469.167 10.543H468.036C467.967 11.063 467.776 11.466 467.464 11.752C467.161 12.038 466.736 12.181 466.19 12.181C465.844 12.181 465.545 12.1117 465.293 11.973C465.042 11.8343 464.838 11.6523 464.682 11.427C464.526 11.193 464.409 10.9287 464.331 10.634C464.262 10.3393 464.227 10.036 464.227 9.724C464.227 9.386 464.262 9.061 464.331 8.749C464.401 8.42833 464.513 8.14667 464.669 7.904C464.834 7.66133 465.051 7.46633 465.319 7.319C465.588 7.17167 465.922 7.098 466.32 7.098C466.788 7.098 467.161 7.215 467.438 7.449C467.716 7.683 467.898 8.01233 467.984 8.437ZM471.938 6.279V4.264H470.833V6.279H469.689V7.254H470.833V11.531C470.833 11.843 470.863 12.0943 470.924 12.285C470.984 12.4757 471.075 12.623 471.197 12.727C471.327 12.831 471.491 12.9047 471.691 12.948C471.899 12.9827 472.146 13 472.432 13H473.277V12.025H472.77C472.596 12.025 472.453 12.0207 472.341 12.012C472.237 11.9947 472.154 11.9643 472.094 11.921C472.033 11.8777 471.99 11.817 471.964 11.739C471.946 11.661 471.938 11.557 471.938 11.427V7.254H473.277V6.279H471.938ZM479.54 11.96V4.758H481.62C482.192 4.758 482.673 4.84033 483.063 5.005C483.453 5.161 483.769 5.395 484.012 5.707C484.263 6.01033 484.441 6.383 484.545 6.825C484.657 7.25833 484.714 7.75233 484.714 8.307C484.714 8.879 484.653 9.36867 484.532 9.776C484.419 10.1747 484.272 10.5083 484.09 10.777C483.908 11.0457 483.7 11.258 483.466 11.414C483.24 11.57 483.011 11.6913 482.777 11.778C482.543 11.856 482.322 11.908 482.114 11.934C481.906 11.9513 481.732 11.96 481.594 11.96H479.54ZM478.305 3.718V13H481.49C482.261 13 482.928 12.8917 483.492 12.675C484.055 12.4583 484.519 12.1463 484.883 11.739C485.247 11.323 485.515 10.816 485.689 10.218C485.862 9.61133 485.949 8.918 485.949 8.138C485.949 6.64733 485.563 5.538 484.792 4.81C484.02 4.082 482.92 3.718 481.49 3.718H478.305ZM491.943 8.996H488.082C488.099 8.736 488.156 8.49333 488.251 8.268C488.346 8.034 488.476 7.83033 488.641 7.657C488.806 7.48367 489.001 7.34933 489.226 7.254C489.46 7.15 489.72 7.098 490.006 7.098C490.283 7.098 490.535 7.15 490.76 7.254C490.994 7.34933 491.193 7.48367 491.358 7.657C491.531 7.82167 491.666 8.021 491.761 8.255C491.865 8.489 491.926 8.736 491.943 8.996ZM493.009 10.868H491.917C491.822 11.31 491.622 11.6393 491.319 11.856C491.024 12.0727 490.643 12.181 490.175 12.181C489.811 12.181 489.495 12.1203 489.226 11.999C488.957 11.8777 488.736 11.7173 488.563 11.518C488.39 11.31 488.264 11.076 488.186 10.816C488.108 10.5473 488.073 10.2657 488.082 9.971H493.113C493.13 9.56367 493.091 9.13467 492.996 8.684C492.909 8.23333 492.745 7.81733 492.502 7.436C492.268 7.05467 491.952 6.74267 491.553 6.5C491.163 6.24867 490.669 6.123 490.071 6.123C489.612 6.123 489.187 6.20967 488.797 6.383C488.416 6.55633 488.082 6.799 487.796 7.111C487.519 7.423 487.302 7.79133 487.146 8.216C486.99 8.64067 486.912 9.10867 486.912 9.62C486.929 10.1313 487.003 10.6037 487.133 11.037C487.272 11.4703 487.475 11.843 487.744 12.155C488.013 12.467 488.342 12.7097 488.732 12.883C489.131 13.0563 489.599 13.143 490.136 13.143C490.899 13.143 491.531 12.9523 492.034 12.571C492.537 12.1897 492.862 11.622 493.009 10.868ZM494.934 10.881H493.829C493.847 11.297 493.933 11.6523 494.089 11.947C494.245 12.233 494.453 12.467 494.713 12.649C494.973 12.8223 495.272 12.948 495.61 13.026C495.948 13.104 496.304 13.143 496.676 13.143C497.014 13.143 497.352 13.1083 497.69 13.039C498.037 12.9783 498.345 12.8657 498.613 12.701C498.891 12.5363 499.112 12.3197 499.276 12.051C499.45 11.7823 499.536 11.4443 499.536 11.037C499.536 10.7163 499.471 10.4477 499.341 10.231C499.22 10.0143 499.055 9.83667 498.847 9.698C498.648 9.55067 498.414 9.43367 498.145 9.347C497.885 9.26033 497.617 9.18667 497.339 9.126C497.079 9.06533 496.819 9.009 496.559 8.957C496.299 8.89633 496.065 8.827 495.857 8.749C495.649 8.66233 495.476 8.55833 495.337 8.437C495.207 8.307 495.142 8.14667 495.142 7.956C495.142 7.78267 495.186 7.644 495.272 7.54C495.359 7.42733 495.472 7.34067 495.61 7.28C495.749 7.21067 495.901 7.163 496.065 7.137C496.239 7.111 496.408 7.098 496.572 7.098C496.754 7.098 496.932 7.11967 497.105 7.163C497.287 7.19767 497.452 7.25833 497.599 7.345C497.747 7.43167 497.868 7.54867 497.963 7.696C498.059 7.83467 498.115 8.01233 498.132 8.229H499.237C499.211 7.82167 499.125 7.48367 498.977 7.215C498.83 6.93767 498.631 6.721 498.379 6.565C498.137 6.40033 497.855 6.28767 497.534 6.227C497.214 6.15767 496.863 6.123 496.481 6.123C496.187 6.123 495.888 6.162 495.584 6.24C495.29 6.30933 495.021 6.422 494.778 6.578C494.544 6.72533 494.349 6.92033 494.193 7.163C494.046 7.40567 493.972 7.696 493.972 8.034C493.972 8.46733 494.081 8.80533 494.297 9.048C494.514 9.29067 494.783 9.48133 495.103 9.62C495.433 9.75 495.788 9.854 496.169 9.932C496.551 10.0013 496.902 10.0837 497.222 10.179C497.552 10.2657 497.825 10.3827 498.041 10.53C498.258 10.6773 498.366 10.894 498.366 11.18C498.366 11.388 498.314 11.5613 498.21 11.7C498.106 11.83 497.972 11.9297 497.807 11.999C497.651 12.0683 497.478 12.116 497.287 12.142C497.097 12.168 496.915 12.181 496.741 12.181C496.516 12.181 496.295 12.1593 496.078 12.116C495.87 12.0727 495.68 12.0033 495.506 11.908C495.342 11.804 495.207 11.6697 495.103 11.505C494.999 11.3317 494.943 11.1237 494.934 10.881ZM501.928 5.07V3.718H500.823V5.07H501.928ZM500.823 6.279V13H501.928V6.279H500.823ZM509.438 12.428V6.279H508.398V7.241H508.385C508.186 6.86833 507.908 6.591 507.553 6.409C507.198 6.21833 506.808 6.123 506.383 6.123C505.802 6.123 505.313 6.23567 504.914 6.461C504.515 6.67767 504.195 6.95933 503.952 7.306C503.709 7.644 503.536 8.02533 503.432 8.45C503.328 8.866 503.276 9.27333 503.276 9.672C503.276 10.1313 503.337 10.569 503.458 10.985C503.588 11.3923 503.779 11.752 504.03 12.064C504.281 12.3673 504.593 12.61 504.966 12.792C505.339 12.974 505.776 13.065 506.279 13.065C506.712 13.065 507.12 12.9697 507.501 12.779C507.891 12.5797 508.181 12.272 508.372 11.856H508.398V12.298C508.398 12.6707 508.359 13.013 508.281 13.325C508.212 13.637 508.095 13.9013 507.93 14.118C507.765 14.3433 507.557 14.5167 507.306 14.638C507.055 14.768 506.747 14.833 506.383 14.833C506.201 14.833 506.01 14.8113 505.811 14.768C505.612 14.7333 505.425 14.6727 505.252 14.586C505.087 14.4993 504.944 14.3867 504.823 14.248C504.71 14.1093 504.65 13.9403 504.641 13.741H503.536C503.553 14.105 503.649 14.4127 503.822 14.664C503.995 14.9153 504.212 15.119 504.472 15.275C504.741 15.431 505.035 15.5437 505.356 15.613C505.685 15.6823 506.006 15.717 506.318 15.717C507.393 15.717 508.181 15.444 508.684 14.898C509.187 14.352 509.438 13.5287 509.438 12.428ZM506.344 12.103C505.98 12.103 505.677 12.0293 505.434 11.882C505.191 11.726 504.996 11.5267 504.849 11.284C504.702 11.0327 504.598 10.7553 504.537 10.452C504.476 10.1487 504.446 9.84533 504.446 9.542C504.446 9.22133 504.481 8.91367 504.55 8.619C504.628 8.32433 504.745 8.06433 504.901 7.839C505.066 7.61367 505.274 7.436 505.525 7.306C505.776 7.16733 506.08 7.098 506.435 7.098C506.782 7.098 507.076 7.16733 507.319 7.306C507.562 7.44467 507.757 7.631 507.904 7.865C508.06 8.09033 508.173 8.346 508.242 8.632C508.311 8.918 508.346 9.20833 508.346 9.503C508.346 9.815 508.307 10.127 508.229 10.439C508.16 10.751 508.047 11.0327 507.891 11.284C507.735 11.5267 507.527 11.726 507.267 11.882C507.016 12.0293 506.708 12.103 506.344 12.103ZM511.105 6.279V13H512.21V9.204C512.21 8.90067 512.249 8.62333 512.327 8.372C512.414 8.112 512.539 7.88667 512.704 7.696C512.869 7.50533 513.072 7.358 513.315 7.254C513.566 7.15 513.861 7.098 514.199 7.098C514.624 7.098 514.957 7.21933 515.2 7.462C515.443 7.70467 515.564 8.034 515.564 8.45V13H516.669V8.58C516.669 8.216 516.63 7.88667 516.552 7.592C516.483 7.28867 516.357 7.02867 516.175 6.812C515.993 6.59533 515.755 6.42633 515.46 6.305C515.165 6.18367 514.797 6.123 514.355 6.123C513.358 6.123 512.63 6.53033 512.171 7.345H512.145V6.279H511.105ZM528.655 6.513H529.89C529.82 6.019 529.673 5.58567 529.448 5.213C529.222 4.83167 528.941 4.51533 528.603 4.264C528.265 4.01267 527.879 3.822 527.446 3.692C527.012 3.562 526.553 3.497 526.068 3.497C525.357 3.497 524.724 3.627 524.17 3.887C523.624 4.13833 523.164 4.485 522.792 4.927C522.428 5.369 522.15 5.889 521.96 6.487C521.769 7.07633 521.674 7.709 521.674 8.385C521.674 9.061 521.76 9.69367 521.934 10.283C522.116 10.8723 522.384 11.3837 522.74 11.817C523.095 12.2503 523.541 12.5927 524.079 12.844C524.616 13.0867 525.244 13.208 525.964 13.208C527.151 13.208 528.087 12.883 528.772 12.233C529.456 11.583 529.859 10.673 529.981 9.503H528.746C528.72 9.88433 528.642 10.2397 528.512 10.569C528.382 10.8983 528.2 11.1843 527.966 11.427C527.74 11.661 527.467 11.8473 527.147 11.986C526.835 12.116 526.475 12.181 526.068 12.181C525.513 12.181 525.036 12.077 524.638 11.869C524.239 11.661 523.91 11.3837 523.65 11.037C523.398 10.6817 523.212 10.27 523.091 9.802C522.969 9.32533 522.909 8.82267 522.909 8.294C522.909 7.80867 522.969 7.34067 523.091 6.89C523.212 6.43933 523.398 6.04067 523.65 5.694C523.91 5.33867 524.235 5.057 524.625 4.849C525.023 4.641 525.5 4.537 526.055 4.537C526.705 4.537 527.264 4.70167 527.732 5.031C528.208 5.36033 528.516 5.85433 528.655 6.513ZM537.283 12.974C537.092 13.0867 536.828 13.143 536.49 13.143C536.204 13.143 535.974 13.065 535.801 12.909C535.636 12.7443 535.554 12.48 535.554 12.116C535.25 12.48 534.895 12.7443 534.488 12.909C534.089 13.065 533.656 13.143 533.188 13.143C532.884 13.143 532.594 13.1083 532.317 13.039C532.048 12.9697 531.814 12.8613 531.615 12.714C531.415 12.5667 531.255 12.376 531.134 12.142C531.021 11.8993 530.965 11.609 530.965 11.271C530.965 10.8897 531.03 10.5777 531.16 10.335C531.29 10.0923 531.459 9.89733 531.667 9.75C531.883 9.594 532.126 9.477 532.395 9.399C532.672 9.321 532.954 9.256 533.24 9.204C533.543 9.14333 533.829 9.1 534.098 9.074C534.375 9.03933 534.618 8.996 534.826 8.944C535.034 8.88333 535.198 8.801 535.32 8.697C535.441 8.58433 535.502 8.424 535.502 8.216C535.502 7.97333 535.454 7.77833 535.359 7.631C535.272 7.48367 535.155 7.371 535.008 7.293C534.869 7.215 534.709 7.163 534.527 7.137C534.353 7.111 534.18 7.098 534.007 7.098C533.539 7.098 533.149 7.189 532.837 7.371C532.525 7.54433 532.356 7.878 532.33 8.372H531.225C531.242 7.956 531.329 7.605 531.485 7.319C531.641 7.033 531.849 6.80333 532.109 6.63C532.369 6.448 532.663 6.318 532.993 6.24C533.331 6.162 533.69 6.123 534.072 6.123C534.375 6.123 534.674 6.14467 534.969 6.188C535.272 6.23133 535.545 6.32233 535.788 6.461C536.03 6.591 536.225 6.77733 536.373 7.02C536.52 7.26267 536.594 7.579 536.594 7.969V11.427C536.594 11.687 536.607 11.8777 536.633 11.999C536.667 12.1203 536.771 12.181 536.945 12.181C537.04 12.181 537.153 12.1593 537.283 12.116V12.974ZM535.489 9.529C535.35 9.633 535.168 9.711 534.943 9.763C534.717 9.80633 534.479 9.84533 534.228 9.88C533.985 9.906 533.738 9.94067 533.487 9.984C533.235 10.0187 533.01 10.0793 532.811 10.166C532.611 10.2527 532.447 10.3783 532.317 10.543C532.195 10.699 532.135 10.9157 532.135 11.193C532.135 11.375 532.169 11.531 532.239 11.661C532.317 11.7823 532.412 11.882 532.525 11.96C532.646 12.038 532.785 12.0943 532.941 12.129C533.097 12.1637 533.261 12.181 533.435 12.181C533.799 12.181 534.111 12.1333 534.371 12.038C534.631 11.934 534.843 11.8083 535.008 11.661C535.172 11.505 535.294 11.3403 535.372 11.167C535.45 10.985 535.489 10.816 535.489 10.66V9.529ZM538.272 6.279V13H539.377V10.01C539.377 9.57667 539.42 9.19533 539.507 8.866C539.594 8.528 539.732 8.242 539.923 8.008C540.114 7.774 540.365 7.59633 540.677 7.475C540.989 7.35367 541.366 7.293 541.808 7.293V6.123C541.21 6.10567 540.716 6.227 540.326 6.487C539.936 6.747 539.607 7.15 539.338 7.696H539.312V6.279H538.272ZM547.079 8.996H543.218C543.235 8.736 543.291 8.49333 543.387 8.268C543.482 8.034 543.612 7.83033 543.777 7.657C543.941 7.48367 544.136 7.34933 544.362 7.254C544.596 7.15 544.856 7.098 545.142 7.098C545.419 7.098 545.67 7.15 545.896 7.254C546.13 7.34933 546.329 7.48367 546.494 7.657C546.667 7.82167 546.801 8.021 546.897 8.255C547.001 8.489 547.061 8.736 547.079 8.996ZM548.145 10.868H547.053C546.957 11.31 546.758 11.6393 546.455 11.856C546.16 12.0727 545.779 12.181 545.311 12.181C544.947 12.181 544.63 12.1203 544.362 11.999C544.093 11.8777 543.872 11.7173 543.699 11.518C543.525 11.31 543.4 11.076 543.322 10.816C543.244 10.5473 543.209 10.2657 543.218 9.971H548.249C548.266 9.56367 548.227 9.13467 548.132 8.684C548.045 8.23333 547.88 7.81733 547.638 7.436C547.404 7.05467 547.087 6.74267 546.689 6.5C546.299 6.24867 545.805 6.123 545.207 6.123C544.747 6.123 544.323 6.20967 543.933 6.383C543.551 6.55633 543.218 6.799 542.932 7.111C542.654 7.423 542.438 7.79133 542.282 8.216C542.126 8.64067 542.048 9.10867 542.048 9.62C542.065 10.1313 542.139 10.6037 542.269 11.037C542.407 11.4703 542.611 11.843 542.88 12.155C543.148 12.467 543.478 12.7097 543.868 12.883C544.266 13.0563 544.734 13.143 545.272 13.143C546.034 13.143 546.667 12.9523 547.17 12.571C547.672 12.1897 547.997 11.622 548.145 10.868ZM554.061 8.996H550.2C550.217 8.736 550.274 8.49333 550.369 8.268C550.464 8.034 550.594 7.83033 550.759 7.657C550.924 7.48367 551.119 7.34933 551.344 7.254C551.578 7.15 551.838 7.098 552.124 7.098C552.401 7.098 552.653 7.15 552.878 7.254C553.112 7.34933 553.311 7.48367 553.476 7.657C553.649 7.82167 553.784 8.021 553.879 8.255C553.983 8.489 554.044 8.736 554.061 8.996ZM555.127 10.868H554.035C553.94 11.31 553.74 11.6393 553.437 11.856C553.142 12.0727 552.761 12.181 552.293 12.181C551.929 12.181 551.613 12.1203 551.344 11.999C551.075 11.8777 550.854 11.7173 550.681 11.518C550.508 11.31 550.382 11.076 550.304 10.816C550.226 10.5473 550.191 10.2657 550.2 9.971H555.231C555.248 9.56367 555.209 9.13467 555.114 8.684C555.027 8.23333 554.863 7.81733 554.62 7.436C554.386 7.05467 554.07 6.74267 553.671 6.5C553.281 6.24867 552.787 6.123 552.189 6.123C551.73 6.123 551.305 6.20967 550.915 6.383C550.534 6.55633 550.2 6.799 549.914 7.111C549.637 7.423 549.42 7.79133 549.264 8.216C549.108 8.64067 549.03 9.10867 549.03 9.62C549.047 10.1313 549.121 10.6037 549.251 11.037C549.39 11.4703 549.593 11.843 549.862 12.155C550.131 12.467 550.46 12.7097 550.85 12.883C551.249 13.0563 551.717 13.143 552.254 13.143C553.017 13.143 553.649 12.9523 554.152 12.571C554.655 12.1897 554.98 11.622 555.127 10.868ZM556.337 6.279V13H557.442V10.01C557.442 9.57667 557.486 9.19533 557.572 8.866C557.659 8.528 557.798 8.242 557.988 8.008C558.179 7.774 558.43 7.59633 558.742 7.475C559.054 7.35367 559.431 7.293 559.873 7.293V6.123C559.275 6.10567 558.781 6.227 558.391 6.487C558.001 6.747 557.672 7.15 557.403 7.696H557.377V6.279H556.337ZM565.741 8.164V4.758H568.159C568.861 4.758 569.372 4.90533 569.693 5.2C570.022 5.486 570.187 5.90633 570.187 6.461C570.187 7.01567 570.022 7.44033 569.693 7.735C569.372 8.02967 568.861 8.17267 568.159 8.164H565.741ZM564.506 3.718V13H565.741V9.204H568.575C569.511 9.21267 570.217 8.97433 570.694 8.489C571.179 8.00367 571.422 7.32767 571.422 6.461C571.422 5.59433 571.179 4.92267 570.694 4.446C570.217 3.96067 569.511 3.718 568.575 3.718H564.506ZM572.714 6.279V13H573.819V10.01C573.819 9.57667 573.863 9.19533 573.949 8.866C574.036 8.528 574.175 8.242 574.365 8.008C574.556 7.774 574.807 7.59633 575.119 7.475C575.431 7.35367 575.808 7.293 576.25 7.293V6.123C575.652 6.10567 575.158 6.227 574.768 6.487C574.378 6.747 574.049 7.15 573.78 7.696H573.754V6.279H572.714ZM581.521 8.996H577.66C577.677 8.736 577.734 8.49333 577.829 8.268C577.924 8.034 578.054 7.83033 578.219 7.657C578.384 7.48367 578.579 7.34933 578.804 7.254C579.038 7.15 579.298 7.098 579.584 7.098C579.861 7.098 580.113 7.15 580.338 7.254C580.572 7.34933 580.771 7.48367 580.936 7.657C581.109 7.82167 581.244 8.021 581.339 8.255C581.443 8.489 581.504 8.736 581.521 8.996ZM582.587 10.868H581.495C581.4 11.31 581.2 11.6393 580.897 11.856C580.602 12.0727 580.221 12.181 579.753 12.181C579.389 12.181 579.073 12.1203 578.804 11.999C578.535 11.8777 578.314 11.7173 578.141 11.518C577.968 11.31 577.842 11.076 577.764 10.816C577.686 10.5473 577.651 10.2657 577.66 9.971H582.691C582.708 9.56367 582.669 9.13467 582.574 8.684C582.487 8.23333 582.323 7.81733 582.08 7.436C581.846 7.05467 581.53 6.74267 581.131 6.5C580.741 6.24867 580.247 6.123 579.649 6.123C579.19 6.123 578.765 6.20967 578.375 6.383C577.994 6.55633 577.66 6.799 577.374 7.111C577.097 7.423 576.88 7.79133 576.724 8.216C576.568 8.64067 576.49 9.10867 576.49 9.62C576.507 10.1313 576.581 10.6037 576.711 11.037C576.85 11.4703 577.053 11.843 577.322 12.155C577.591 12.467 577.92 12.7097 578.31 12.883C578.709 13.0563 579.177 13.143 579.714 13.143C580.477 13.143 581.109 12.9523 581.612 12.571C582.115 12.1897 582.44 11.622 582.587 10.868ZM583.875 6.279V15.561H584.98V12.103H585.006C585.128 12.3023 585.275 12.4713 585.448 12.61C585.63 12.74 585.821 12.844 586.02 12.922C586.22 13 586.419 13.0563 586.618 13.091C586.826 13.1257 587.013 13.143 587.177 13.143C587.689 13.143 588.135 13.052 588.516 12.87C588.906 12.688 589.227 12.441 589.478 12.129C589.738 11.8083 589.929 11.4357 590.05 11.011C590.18 10.5863 590.245 10.1357 590.245 9.659C590.245 9.18233 590.18 8.73167 590.05 8.307C589.92 7.88233 589.725 7.50967 589.465 7.189C589.214 6.85967 588.893 6.59967 588.503 6.409C588.122 6.21833 587.671 6.123 587.151 6.123C586.683 6.123 586.254 6.20967 585.864 6.383C585.474 6.54767 585.188 6.81633 585.006 7.189H584.98V6.279H583.875ZM589.075 9.581C589.075 9.91033 589.041 10.231 588.971 10.543C588.902 10.855 588.789 11.1323 588.633 11.375C588.477 11.6177 588.269 11.8127 588.009 11.96C587.758 12.1073 587.442 12.181 587.06 12.181C586.679 12.181 586.354 12.1117 586.085 11.973C585.817 11.8257 585.596 11.635 585.422 11.401C585.258 11.167 585.136 10.8983 585.058 10.595C584.98 10.283 584.941 9.96233 584.941 9.633C584.941 9.321 584.976 9.01333 585.045 8.71C585.123 8.40667 585.245 8.138 585.409 7.904C585.574 7.66133 585.786 7.46633 586.046 7.319C586.306 7.17167 586.623 7.098 586.995 7.098C587.351 7.098 587.658 7.16733 587.918 7.306C588.187 7.44467 588.404 7.631 588.568 7.865C588.742 8.099 588.867 8.36767 588.945 8.671C589.032 8.96567 589.075 9.269 589.075 9.581ZM597.496 12.974C597.306 13.0867 597.041 13.143 596.703 13.143C596.417 13.143 596.188 13.065 596.014 12.909C595.85 12.7443 595.767 12.48 595.767 12.116C595.464 12.48 595.109 12.7443 594.701 12.909C594.303 13.065 593.869 13.143 593.401 13.143C593.098 13.143 592.808 13.1083 592.53 13.039C592.262 12.9697 592.028 12.8613 591.828 12.714C591.629 12.5667 591.469 12.376 591.347 12.142C591.235 11.8993 591.178 11.609 591.178 11.271C591.178 10.8897 591.243 10.5777 591.373 10.335C591.503 10.0923 591.672 9.89733 591.88 9.75C592.097 9.594 592.34 9.477 592.608 9.399C592.886 9.321 593.167 9.256 593.453 9.204C593.757 9.14333 594.043 9.1 594.311 9.074C594.589 9.03933 594.831 8.996 595.039 8.944C595.247 8.88333 595.412 8.801 595.533 8.697C595.655 8.58433 595.715 8.424 595.715 8.216C595.715 7.97333 595.668 7.77833 595.572 7.631C595.486 7.48367 595.369 7.371 595.221 7.293C595.083 7.215 594.922 7.163 594.74 7.137C594.567 7.111 594.394 7.098 594.22 7.098C593.752 7.098 593.362 7.189 593.05 7.371C592.738 7.54433 592.569 7.878 592.543 8.372H591.438C591.456 7.956 591.542 7.605 591.698 7.319C591.854 7.033 592.062 6.80333 592.322 6.63C592.582 6.448 592.877 6.318 593.206 6.24C593.544 6.162 593.904 6.123 594.285 6.123C594.589 6.123 594.888 6.14467 595.182 6.188C595.486 6.23133 595.759 6.32233 596.001 6.461C596.244 6.591 596.439 6.77733 596.586 7.02C596.734 7.26267 596.807 7.579 596.807 7.969V11.427C596.807 11.687 596.82 11.8777 596.846 11.999C596.881 12.1203 596.985 12.181 597.158 12.181C597.254 12.181 597.366 12.1593 597.496 12.116V12.974ZM595.702 9.529C595.564 9.633 595.382 9.711 595.156 9.763C594.931 9.80633 594.693 9.84533 594.441 9.88C594.199 9.906 593.952 9.94067 593.7 9.984C593.449 10.0187 593.224 10.0793 593.024 10.166C592.825 10.2527 592.66 10.3783 592.53 10.543C592.409 10.699 592.348 10.9157 592.348 11.193C592.348 11.375 592.383 11.531 592.452 11.661C592.53 11.7823 592.626 11.882 592.738 11.96C592.86 12.038 592.998 12.0943 593.154 12.129C593.31 12.1637 593.475 12.181 593.648 12.181C594.012 12.181 594.324 12.1333 594.584 12.038C594.844 11.934 595.057 11.8083 595.221 11.661C595.386 11.505 595.507 11.3403 595.585 11.167C595.663 10.985 595.702 10.816 595.702 10.66V9.529ZM598.486 6.279V13H599.591V10.01C599.591 9.57667 599.634 9.19533 599.721 8.866C599.808 8.528 599.946 8.242 600.137 8.008C600.328 7.774 600.579 7.59633 600.891 7.475C601.203 7.35367 601.58 7.293 602.022 7.293V6.123C601.424 6.10567 600.93 6.227 600.54 6.487C600.15 6.747 599.821 7.15 599.552 7.696H599.526V6.279H598.486ZM608.808 12.974C608.617 13.0867 608.353 13.143 608.015 13.143C607.729 13.143 607.499 13.065 607.326 12.909C607.161 12.7443 607.079 12.48 607.079 12.116C606.776 12.48 606.42 12.7443 606.013 12.909C605.614 13.065 605.181 13.143 604.713 13.143C604.41 13.143 604.119 13.1083 603.842 13.039C603.573 12.9697 603.339 12.8613 603.14 12.714C602.941 12.5667 602.78 12.376 602.659 12.142C602.546 11.8993 602.49 11.609 602.49 11.271C602.49 10.8897 602.555 10.5777 602.685 10.335C602.815 10.0923 602.984 9.89733 603.192 9.75C603.409 9.594 603.651 9.477 603.92 9.399C604.197 9.321 604.479 9.256 604.765 9.204C605.068 9.14333 605.354 9.1 605.623 9.074C605.9 9.03933 606.143 8.996 606.351 8.944C606.559 8.88333 606.724 8.801 606.845 8.697C606.966 8.58433 607.027 8.424 607.027 8.216C607.027 7.97333 606.979 7.77833 606.884 7.631C606.797 7.48367 606.68 7.371 606.533 7.293C606.394 7.215 606.234 7.163 606.052 7.137C605.879 7.111 605.705 7.098 605.532 7.098C605.064 7.098 604.674 7.189 604.362 7.371C604.05 7.54433 603.881 7.878 603.855 8.372H602.75C602.767 7.956 602.854 7.605 603.01 7.319C603.166 7.033 603.374 6.80333 603.634 6.63C603.894 6.448 604.189 6.318 604.518 6.24C604.856 6.162 605.216 6.123 605.597 6.123C605.9 6.123 606.199 6.14467 606.494 6.188C606.797 6.23133 607.07 6.32233 607.313 6.461C607.556 6.591 607.751 6.77733 607.898 7.02C608.045 7.26267 608.119 7.579 608.119 7.969V11.427C608.119 11.687 608.132 11.8777 608.158 11.999C608.193 12.1203 608.297 12.181 608.47 12.181C608.565 12.181 608.678 12.1593 608.808 12.116V12.974ZM607.014 9.529C606.875 9.633 606.693 9.711 606.468 9.763C606.243 9.80633 606.004 9.84533 605.753 9.88C605.51 9.906 605.263 9.94067 605.012 9.984C604.761 10.0187 604.535 10.0793 604.336 10.166C604.137 10.2527 603.972 10.3783 603.842 10.543C603.721 10.699 603.66 10.9157 603.66 11.193C603.66 11.375 603.695 11.531 603.764 11.661C603.842 11.7823 603.937 11.882 604.05 11.96C604.171 12.038 604.31 12.0943 604.466 12.129C604.622 12.1637 604.787 12.181 604.96 12.181C605.324 12.181 605.636 12.1333 605.896 12.038C606.156 11.934 606.368 11.8083 606.533 11.661C606.698 11.505 606.819 11.3403 606.897 11.167C606.975 10.985 607.014 10.816 607.014 10.66V9.529ZM611.37 6.279V4.264H610.265V6.279H609.121V7.254H610.265V11.531C610.265 11.843 610.296 12.0943 610.356 12.285C610.417 12.4757 610.508 12.623 610.629 12.727C610.759 12.831 610.924 12.9047 611.123 12.948C611.331 12.9827 611.578 13 611.864 13H612.709V12.025H612.202C612.029 12.025 611.886 12.0207 611.773 12.012C611.669 11.9947 611.587 11.9643 611.526 11.921C611.466 11.8777 611.422 11.817 611.396 11.739C611.379 11.661 611.37 11.557 611.37 11.427V7.254H612.709V6.279H611.37ZM615.107 5.07V3.718H614.002V5.07H615.107ZM614.002 6.279V13H615.107V6.279H614.002ZM617.625 9.646C617.625 9.23867 617.677 8.879 617.781 8.567C617.893 8.24633 618.045 7.97767 618.236 7.761C618.426 7.54433 618.647 7.37967 618.899 7.267C619.159 7.15433 619.432 7.098 619.718 7.098C620.004 7.098 620.272 7.15433 620.524 7.267C620.784 7.37967 621.009 7.54433 621.2 7.761C621.39 7.97767 621.538 8.24633 621.642 8.567C621.754 8.879 621.811 9.23867 621.811 9.646C621.811 10.0533 621.754 10.4173 621.642 10.738C621.538 11.05 621.39 11.3143 621.2 11.531C621.009 11.739 620.784 11.8993 620.524 12.012C620.272 12.1247 620.004 12.181 619.718 12.181C619.432 12.181 619.159 12.1247 618.899 12.012C618.647 11.8993 618.426 11.739 618.236 11.531C618.045 11.3143 617.893 11.05 617.781 10.738C617.677 10.4173 617.625 10.0533 617.625 9.646ZM616.455 9.646C616.455 10.14 616.524 10.5993 616.663 11.024C616.801 11.4487 617.009 11.8213 617.287 12.142C617.564 12.454 617.906 12.701 618.314 12.883C618.721 13.0563 619.189 13.143 619.718 13.143C620.255 13.143 620.723 13.0563 621.122 12.883C621.529 12.701 621.871 12.454 622.149 12.142C622.426 11.8213 622.634 11.4487 622.773 11.024C622.911 10.5993 622.981 10.14 622.981 9.646C622.981 9.152 622.911 8.69267 622.773 8.268C622.634 7.83467 622.426 7.462 622.149 7.15C621.871 6.82933 621.529 6.578 621.122 6.396C620.723 6.214 620.255 6.123 619.718 6.123C619.189 6.123 618.721 6.214 618.314 6.396C617.906 6.578 617.564 6.82933 617.287 7.15C617.009 7.462 616.801 7.83467 616.663 8.268C616.524 8.69267 616.455 9.152 616.455 9.646ZM624.284 6.279V13H625.389V9.204C625.389 8.90067 625.428 8.62333 625.506 8.372C625.592 8.112 625.718 7.88667 625.883 7.696C626.047 7.50533 626.251 7.358 626.494 7.254C626.745 7.15 627.04 7.098 627.378 7.098C627.802 7.098 628.136 7.21933 628.379 7.462C628.621 7.70467 628.743 8.034 628.743 8.45V13H629.848V8.58C629.848 8.216 629.809 7.88667 629.731 7.592C629.661 7.28867 629.536 7.02867 629.354 6.812C629.172 6.59533 628.933 6.42633 628.639 6.305C628.344 6.18367 627.976 6.123 627.534 6.123C626.537 6.123 625.809 6.53033 625.35 7.345H625.324V6.279H624.284ZM639.688 8.437H640.832C640.789 8.03833 640.685 7.696 640.52 7.41C640.356 7.11533 640.143 6.87267 639.883 6.682C639.632 6.49133 639.337 6.35267 638.999 6.266C638.67 6.17067 638.315 6.123 637.933 6.123C637.405 6.123 636.941 6.21833 636.542 6.409C636.144 6.591 635.81 6.84667 635.541 7.176C635.281 7.49667 635.086 7.878 634.956 8.32C634.826 8.75333 634.761 9.22133 634.761 9.724C634.761 10.2267 634.826 10.6903 634.956 11.115C635.095 11.531 635.294 11.8907 635.554 12.194C635.823 12.4973 636.152 12.7313 636.542 12.896C636.941 13.0607 637.396 13.143 637.907 13.143C638.765 13.143 639.441 12.9177 639.935 12.467C640.438 12.0163 640.75 11.375 640.871 10.543H639.74C639.671 11.063 639.48 11.466 639.168 11.752C638.865 12.038 638.44 12.181 637.894 12.181C637.548 12.181 637.249 12.1117 636.997 11.973C636.746 11.8343 636.542 11.6523 636.386 11.427C636.23 11.193 636.113 10.9287 636.035 10.634C635.966 10.3393 635.931 10.036 635.931 9.724C635.931 9.386 635.966 9.061 636.035 8.749C636.105 8.42833 636.217 8.14667 636.373 7.904C636.538 7.66133 636.755 7.46633 637.023 7.319C637.292 7.17167 637.626 7.098 638.024 7.098C638.492 7.098 638.865 7.215 639.142 7.449C639.42 7.683 639.602 8.01233 639.688 8.437ZM642.914 9.646C642.914 9.23867 642.966 8.879 643.07 8.567C643.183 8.24633 643.334 7.97767 643.525 7.761C643.716 7.54433 643.937 7.37967 644.188 7.267C644.448 7.15433 644.721 7.098 645.007 7.098C645.293 7.098 645.562 7.15433 645.813 7.267C646.073 7.37967 646.298 7.54433 646.489 7.761C646.68 7.97767 646.827 8.24633 646.931 8.567C647.044 8.879 647.1 9.23867 647.1 9.646C647.1 10.0533 647.044 10.4173 646.931 10.738C646.827 11.05 646.68 11.3143 646.489 11.531C646.298 11.739 646.073 11.8993 645.813 12.012C645.562 12.1247 645.293 12.181 645.007 12.181C644.721 12.181 644.448 12.1247 644.188 12.012C643.937 11.8993 643.716 11.739 643.525 11.531C643.334 11.3143 643.183 11.05 643.07 10.738C642.966 10.4173 642.914 10.0533 642.914 9.646ZM641.744 9.646C641.744 10.14 641.813 10.5993 641.952 11.024C642.091 11.4487 642.299 11.8213 642.576 12.142C642.853 12.454 643.196 12.701 643.603 12.883C644.01 13.0563 644.478 13.143 645.007 13.143C645.544 13.143 646.012 13.0563 646.411 12.883C646.818 12.701 647.161 12.454 647.438 12.142C647.715 11.8213 647.923 11.4487 648.062 11.024C648.201 10.5993 648.27 10.14 648.27 9.646C648.27 9.152 648.201 8.69267 648.062 8.268C647.923 7.83467 647.715 7.462 647.438 7.15C647.161 6.82933 646.818 6.578 646.411 6.396C646.012 6.214 645.544 6.123 645.007 6.123C644.478 6.123 644.01 6.214 643.603 6.396C643.196 6.578 642.853 6.82933 642.576 7.15C642.299 7.462 642.091 7.83467 641.952 8.268C641.813 8.69267 641.744 9.152 641.744 9.646ZM655.137 13V6.279H654.032V10.075C654.032 10.3783 653.988 10.66 653.902 10.92C653.824 11.1713 653.702 11.3923 653.538 11.583C653.373 11.7737 653.165 11.921 652.914 12.025C652.671 12.129 652.381 12.181 652.043 12.181C651.618 12.181 651.284 12.0597 651.042 11.817C650.799 11.5743 650.678 11.245 650.678 10.829V6.279H649.573V10.699C649.573 11.063 649.607 11.3967 649.677 11.7C649.755 11.9947 649.885 12.2503 650.067 12.467C650.249 12.6837 650.487 12.8527 650.782 12.974C651.076 13.0867 651.445 13.143 651.887 13.143C652.381 13.143 652.81 13.0477 653.174 12.857C653.538 12.6577 653.837 12.35 654.071 11.934H654.097V13H655.137ZM656.757 6.279V13H657.862V10.01C657.862 9.57667 657.906 9.19533 657.992 8.866C658.079 8.528 658.218 8.242 658.408 8.008C658.599 7.774 658.85 7.59633 659.162 7.475C659.474 7.35367 659.851 7.293 660.293 7.293V6.123C659.695 6.10567 659.201 6.227 658.811 6.487C658.421 6.747 658.092 7.15 657.823 7.696H657.797V6.279H656.757ZM661.801 10.881H660.696C660.714 11.297 660.8 11.6523 660.956 11.947C661.112 12.233 661.32 12.467 661.58 12.649C661.84 12.8223 662.139 12.948 662.477 13.026C662.815 13.104 663.171 13.143 663.543 13.143C663.881 13.143 664.219 13.1083 664.557 13.039C664.904 12.9783 665.212 12.8657 665.48 12.701C665.758 12.5363 665.979 12.3197 666.143 12.051C666.317 11.7823 666.403 11.4443 666.403 11.037C666.403 10.7163 666.338 10.4477 666.208 10.231C666.087 10.0143 665.922 9.83667 665.714 9.698C665.515 9.55067 665.281 9.43367 665.012 9.347C664.752 9.26033 664.484 9.18667 664.206 9.126C663.946 9.06533 663.686 9.009 663.426 8.957C663.166 8.89633 662.932 8.827 662.724 8.749C662.516 8.66233 662.343 8.55833 662.204 8.437C662.074 8.307 662.009 8.14667 662.009 7.956C662.009 7.78267 662.053 7.644 662.139 7.54C662.226 7.42733 662.339 7.34067 662.477 7.28C662.616 7.21067 662.768 7.163 662.932 7.137C663.106 7.111 663.275 7.098 663.439 7.098C663.621 7.098 663.799 7.11967 663.972 7.163C664.154 7.19767 664.319 7.25833 664.466 7.345C664.614 7.43167 664.735 7.54867 664.83 7.696C664.926 7.83467 664.982 8.01233 664.999 8.229H666.104C666.078 7.82167 665.992 7.48367 665.844 7.215C665.697 6.93767 665.498 6.721 665.246 6.565C665.004 6.40033 664.722 6.28767 664.401 6.227C664.081 6.15767 663.73 6.123 663.348 6.123C663.054 6.123 662.755 6.162 662.451 6.24C662.157 6.30933 661.888 6.422 661.645 6.578C661.411 6.72533 661.216 6.92033 661.06 7.163C660.913 7.40567 660.839 7.696 660.839 8.034C660.839 8.46733 660.948 8.80533 661.164 9.048C661.381 9.29067 661.65 9.48133 661.97 9.62C662.3 9.75 662.655 9.854 663.036 9.932C663.418 10.0013 663.769 10.0837 664.089 10.179C664.419 10.2657 664.692 10.3827 664.908 10.53C665.125 10.6773 665.233 10.894 665.233 11.18C665.233 11.388 665.181 11.5613 665.077 11.7C664.973 11.83 664.839 11.9297 664.674 11.999C664.518 12.0683 664.345 12.116 664.154 12.142C663.964 12.168 663.782 12.181 663.608 12.181C663.383 12.181 663.162 12.1593 662.945 12.116C662.737 12.0727 662.547 12.0033 662.373 11.908C662.209 11.804 662.074 11.6697 661.97 11.505C661.866 11.3317 661.81 11.1237 661.801 10.881ZM672.292 8.996H668.431C668.449 8.736 668.505 8.49333 668.6 8.268C668.696 8.034 668.826 7.83033 668.99 7.657C669.155 7.48367 669.35 7.34933 669.575 7.254C669.809 7.15 670.069 7.098 670.355 7.098C670.633 7.098 670.884 7.15 671.109 7.254C671.343 7.34933 671.543 7.48367 671.707 7.657C671.881 7.82167 672.015 8.021 672.11 8.255C672.214 8.489 672.275 8.736 672.292 8.996ZM673.358 10.868H672.266C672.171 11.31 671.972 11.6393 671.668 11.856C671.374 12.0727 670.992 12.181 670.524 12.181C670.16 12.181 669.844 12.1203 669.575 11.999C669.307 11.8777 669.086 11.7173 668.912 11.518C668.739 11.31 668.613 11.076 668.535 10.816C668.457 10.5473 668.423 10.2657 668.431 9.971H673.462C673.48 9.56367 673.441 9.13467 673.345 8.684C673.259 8.23333 673.094 7.81733 672.851 7.436C672.617 7.05467 672.301 6.74267 671.902 6.5C671.512 6.24867 671.018 6.123 670.42 6.123C669.961 6.123 669.536 6.20967 669.146 6.383C668.765 6.55633 668.431 6.799 668.145 7.111C667.868 7.423 667.651 7.79133 667.495 8.216C667.339 8.64067 667.261 9.10867 667.261 9.62C667.279 10.1313 667.352 10.6037 667.482 11.037C667.621 11.4703 667.825 11.843 668.093 12.155C668.362 12.467 668.691 12.7097 669.081 12.883C669.48 13.0563 669.948 13.143 670.485 13.143C671.248 13.143 671.881 12.9523 672.383 12.571C672.886 12.1897 673.211 11.622 673.358 10.868ZM674.738 11.557V13H676.181V11.557H674.738ZM676.077 6.578V3.718H674.842V6.578L675.167 10.621H675.752L676.077 6.578Z" fill="white"/>
<path d="M682.812 9.906C682.812 10.2613 682.873 10.5647 682.994 10.816C683.116 11.0673 683.285 11.2753 683.501 11.44C683.718 11.596 683.965 11.713 684.242 11.791C684.528 11.8603 684.836 11.895 685.165 11.895C685.521 11.895 685.824 11.856 686.075 11.778C686.327 11.6913 686.53 11.583 686.686 11.453C686.842 11.323 686.955 11.1757 687.024 11.011C687.094 10.8377 687.128 10.6643 687.128 10.491C687.128 10.1357 687.046 9.87567 686.881 9.711C686.725 9.53767 686.552 9.41633 686.361 9.347C686.032 9.22567 685.646 9.113 685.204 9.009C684.771 8.89633 684.234 8.75333 683.592 8.58C683.194 8.476 682.86 8.34167 682.591 8.177C682.331 8.00367 682.123 7.813 681.967 7.605C681.811 7.397 681.699 7.176 681.629 6.942C681.569 6.708 681.538 6.46967 681.538 6.227C681.538 5.759 681.634 5.356 681.824 5.018C682.024 4.67133 682.284 4.38533 682.604 4.16C682.925 3.93467 683.289 3.77 683.696 3.666C684.104 3.55333 684.515 3.497 684.931 3.497C685.417 3.497 685.872 3.562 686.296 3.692C686.73 3.81333 687.107 3.99967 687.427 4.251C687.757 4.50233 688.017 4.81433 688.207 5.187C688.398 5.551 688.493 5.97567 688.493 6.461H686.868C686.825 5.863 686.621 5.44267 686.257 5.2C685.893 4.94867 685.43 4.823 684.866 4.823C684.676 4.823 684.481 4.84467 684.281 4.888C684.082 4.92267 683.9 4.98767 683.735 5.083C683.571 5.16967 683.432 5.291 683.319 5.447C683.215 5.603 683.163 5.798 683.163 6.032C683.163 6.36133 683.263 6.62133 683.462 6.812C683.67 6.994 683.939 7.13267 684.268 7.228C684.303 7.23667 684.437 7.27567 684.671 7.345C684.914 7.40567 685.183 7.475 685.477 7.553C685.772 7.631 686.058 7.709 686.335 7.787C686.621 7.85633 686.825 7.90833 686.946 7.943C687.25 8.03833 687.514 8.16833 687.739 8.333C687.965 8.49767 688.151 8.68833 688.298 8.905C688.454 9.113 688.567 9.33833 688.636 9.581C688.714 9.82367 688.753 10.0663 688.753 10.309C688.753 10.829 688.645 11.2753 688.428 11.648C688.22 12.012 687.943 12.311 687.596 12.545C687.25 12.779 686.855 12.948 686.413 13.052C685.971 13.1647 685.521 13.221 685.061 13.221C684.533 13.221 684.034 13.156 683.566 13.026C683.098 12.896 682.691 12.6967 682.344 12.428C681.998 12.1593 681.72 11.817 681.512 11.401C681.304 10.9763 681.196 10.478 681.187 9.906H682.812ZM690.007 3.718H691.489V5.122H690.007V3.718ZM690.007 6.279H691.489V13H690.007V6.279ZM699.318 12.649C699.318 13.663 699.032 14.417 698.46 14.911C697.896 15.4137 697.082 15.665 696.016 15.665C695.678 15.665 695.335 15.6303 694.989 15.561C694.651 15.4917 694.339 15.3747 694.053 15.21C693.775 15.0453 693.541 14.8287 693.351 14.56C693.16 14.2913 693.047 13.962 693.013 13.572H694.495C694.538 13.78 694.612 13.949 694.716 14.079C694.82 14.209 694.941 14.3087 695.08 14.378C695.227 14.456 695.387 14.5037 695.561 14.521C695.734 14.547 695.916 14.56 696.107 14.56C696.705 14.56 697.142 14.4127 697.42 14.118C697.697 13.8233 697.836 13.3987 697.836 12.844V11.817H697.81C697.602 12.1897 697.316 12.48 696.952 12.688C696.596 12.896 696.211 13 695.795 13C695.257 13 694.798 12.909 694.417 12.727C694.044 12.5363 693.732 12.2807 693.481 11.96C693.238 11.6307 693.06 11.2537 692.948 10.829C692.835 10.4043 692.779 9.94933 692.779 9.464C692.779 9.01333 692.848 8.58433 692.987 8.177C693.125 7.76967 693.325 7.41433 693.585 7.111C693.845 6.799 694.161 6.552 694.534 6.37C694.915 6.188 695.344 6.097 695.821 6.097C696.245 6.097 696.635 6.188 696.991 6.37C697.346 6.54333 697.619 6.82067 697.81 7.202H697.836V6.279H699.318V12.649ZM696.029 11.83C696.358 11.83 696.635 11.765 696.861 11.635C697.095 11.4963 697.281 11.3187 697.42 11.102C697.567 10.8767 697.671 10.6253 697.732 10.348C697.801 10.062 697.836 9.776 697.836 9.49C697.836 9.204 697.801 8.92667 697.732 8.658C697.662 8.38933 697.554 8.151 697.407 7.943C697.268 7.735 697.082 7.57033 696.848 7.449C696.622 7.32767 696.349 7.267 696.029 7.267C695.699 7.267 695.422 7.33633 695.197 7.475C694.971 7.61367 694.789 7.79567 694.651 8.021C694.512 8.23767 694.412 8.489 694.352 8.775C694.291 9.05233 694.261 9.32967 694.261 9.607C694.261 9.88433 694.295 10.1573 694.365 10.426C694.434 10.686 694.538 10.92 694.677 11.128C694.824 11.336 695.006 11.505 695.223 11.635C695.448 11.765 695.717 11.83 696.029 11.83ZM700.81 6.279H702.214V7.267L702.24 7.293C702.465 6.92033 702.76 6.63 703.124 6.422C703.488 6.20533 703.891 6.097 704.333 6.097C705.069 6.097 705.65 6.28767 706.075 6.669C706.499 7.05033 706.712 7.62233 706.712 8.385V13H705.23V8.775C705.212 8.24633 705.1 7.865 704.892 7.631C704.684 7.38833 704.359 7.267 703.917 7.267C703.665 7.267 703.44 7.31467 703.241 7.41C703.041 7.49667 702.872 7.62233 702.734 7.787C702.595 7.943 702.487 8.12933 702.409 8.346C702.331 8.56267 702.292 8.79233 702.292 9.035V13H700.81V6.279ZM717.795 13H716.339V12.064H716.313C716.131 12.402 715.858 12.675 715.494 12.883C715.138 13.0823 714.774 13.182 714.402 13.182C713.518 13.182 712.876 12.9653 712.478 12.532C712.088 12.09 711.893 11.427 711.893 10.543V6.279H713.375V10.4C713.375 10.9893 713.487 11.4053 713.713 11.648C713.938 11.8907 714.254 12.012 714.662 12.012C714.974 12.012 715.234 11.9643 715.442 11.869C715.65 11.7737 715.819 11.648 715.949 11.492C716.079 11.3273 716.17 11.1323 716.222 10.907C716.282 10.6817 716.313 10.439 716.313 10.179V6.279H717.795V13ZM719.397 6.279H720.801V7.189H720.827C721.035 6.799 721.325 6.52167 721.698 6.357C722.07 6.18367 722.473 6.097 722.907 6.097C723.435 6.097 723.895 6.19233 724.285 6.383C724.683 6.565 725.013 6.82067 725.273 7.15C725.533 7.47067 725.728 7.84767 725.858 8.281C725.988 8.71433 726.053 9.178 726.053 9.672C726.053 10.1227 725.992 10.5603 725.871 10.985C725.758 11.4097 725.58 11.7867 725.338 12.116C725.104 12.4367 724.805 12.6967 724.441 12.896C724.077 13.0867 723.648 13.182 723.154 13.182C722.937 13.182 722.72 13.1603 722.504 13.117C722.287 13.0823 722.079 13.0217 721.88 12.935C721.68 12.8483 721.494 12.74 721.321 12.61C721.156 12.4713 721.017 12.311 720.905 12.129H720.879V15.483H719.397V6.279ZM724.571 9.646C724.571 9.34267 724.532 9.048 724.454 8.762C724.376 8.476 724.259 8.22467 724.103 8.008C723.947 7.78267 723.752 7.605 723.518 7.475C723.284 7.33633 723.015 7.267 722.712 7.267C722.088 7.267 721.615 7.48367 721.295 7.917C720.983 8.35033 720.827 8.92667 720.827 9.646C720.827 9.984 720.866 10.3003 720.944 10.595C721.03 10.881 721.156 11.128 721.321 11.336C721.485 11.544 721.68 11.7087 721.906 11.83C722.14 11.9513 722.408 12.012 722.712 12.012C723.05 12.012 723.336 11.9427 723.57 11.804C723.804 11.6653 723.994 11.4877 724.142 11.271C724.298 11.0457 724.406 10.7943 724.467 10.517C724.536 10.231 724.571 9.94067 724.571 9.646ZM730.923 6.279H732.327V7.267L732.353 7.293C732.578 6.92033 732.873 6.63 733.237 6.422C733.601 6.20533 734.004 6.097 734.446 6.097C735.183 6.097 735.763 6.28767 736.188 6.669C736.613 7.05033 736.825 7.62233 736.825 8.385V13H735.343V8.775C735.326 8.24633 735.213 7.865 735.005 7.631C734.797 7.38833 734.472 7.267 734.03 7.267C733.779 7.267 733.553 7.31467 733.354 7.41C733.155 7.49667 732.986 7.62233 732.847 7.787C732.708 7.943 732.6 8.12933 732.522 8.346C732.444 8.56267 732.405 8.79233 732.405 9.035V13H730.923V6.279ZM741.469 13.182C740.932 13.182 740.451 13.0953 740.026 12.922C739.61 12.74 739.255 12.493 738.96 12.181C738.674 11.869 738.453 11.4963 738.297 11.063C738.15 10.6297 738.076 10.153 738.076 9.633C738.076 9.12167 738.15 8.64933 738.297 8.216C738.453 7.78267 738.674 7.41 738.96 7.098C739.255 6.786 739.61 6.54333 740.026 6.37C740.451 6.188 740.932 6.097 741.469 6.097C742.006 6.097 742.483 6.188 742.899 6.37C743.324 6.54333 743.679 6.786 743.965 7.098C744.26 7.41 744.481 7.78267 744.628 8.216C744.784 8.64933 744.862 9.12167 744.862 9.633C744.862 10.153 744.784 10.6297 744.628 11.063C744.481 11.4963 744.26 11.869 743.965 12.181C743.679 12.493 743.324 12.74 742.899 12.922C742.483 13.0953 742.006 13.182 741.469 13.182ZM741.469 12.012C741.798 12.012 742.084 11.9427 742.327 11.804C742.57 11.6653 742.769 11.4833 742.925 11.258C743.081 11.0327 743.194 10.7813 743.263 10.504C743.341 10.218 743.38 9.92767 743.38 9.633C743.38 9.347 743.341 9.061 743.263 8.775C743.194 8.489 743.081 8.23767 742.925 8.021C742.769 7.79567 742.57 7.61367 742.327 7.475C742.084 7.33633 741.798 7.267 741.469 7.267C741.14 7.267 740.854 7.33633 740.611 7.475C740.368 7.61367 740.169 7.79567 740.013 8.021C739.857 8.23767 739.74 8.489 739.662 8.775C739.593 9.061 739.558 9.347 739.558 9.633C739.558 9.92767 739.593 10.218 739.662 10.504C739.74 10.7813 739.857 11.0327 740.013 11.258C740.169 11.4833 740.368 11.6653 740.611 11.804C740.854 11.9427 741.14 12.012 741.469 12.012ZM745.483 6.279H747.056L748.369 11.297H748.395L749.656 6.279H751.151L752.36 11.297H752.386L753.751 6.279H755.259L753.153 13H751.632L750.384 8.008H750.358L749.123 13H747.563L745.483 6.279ZM756.368 11.375H758.11V13H756.368V11.375ZM756.433 3.718H758.058V6.396L757.629 10.413H756.862L756.433 6.396V3.718Z" fill="#EA4C89"/>
</svg>
